<svg width="100" height="104" viewBox="0 0 100 104" fill="none" xmlns="http://www.w3.org/2000/svg" xmlns:xlink="http://www.w3.org/1999/xlink">
<path d="M42.221,7.995C46.148,3.707 52.937,3.707 56.864,7.995L56.864,7.995C59.3,10.655 63.002,11.78 66.503,10.914L66.503,10.914C71.99,9.556 77.491,13.083 78.547,18.635L78.703,19.453C79.387,23.046 81.892,26.025 85.315,27.314L85.315,27.314C90.714,29.347 93.46,35.356 91.464,40.769L91.238,41.384C89.95,44.876 90.494,48.78 92.688,51.786L92.829,51.979C96.308,56.748 95.349,63.421 90.666,67.016L90.666,67.016C87.736,69.266 86.148,72.85 86.45,76.532L86.522,77.411C86.987,83.068 82.707,87.999 77.041,88.336L77.041,88.336C73.422,88.551 70.195,90.686 68.582,93.932L68.352,94.396C65.814,99.503 59.461,101.363 54.57,98.43L54.57,98.43C51.475,96.575 47.61,96.575 44.515,98.43L44.515,98.43C39.624,101.363 33.271,99.503 30.733,94.396L30.502,93.932C28.889,90.686 25.662,88.551 22.044,88.336L22.044,88.336C16.378,87.999 12.098,83.068 12.562,77.411L12.634,76.532C12.937,72.85 11.349,69.266 8.418,67.016L8.418,67.016C3.736,63.421 2.776,56.748 6.256,51.979L6.397,51.786C8.59,48.78 9.135,44.876 7.847,41.384L7.621,40.769C5.624,35.356 8.371,29.347 13.77,27.314L13.77,27.314C17.193,26.025 19.698,23.046 20.382,19.453L20.538,18.635C21.594,13.083 27.095,9.556 32.581,10.914L32.581,10.914C36.083,11.78 39.785,10.655 42.221,7.995L42.221,7.995Z" fill="url(#pf_0_230_822)"/>
<path d="M42.221,7.995C46.148,3.707 52.937,3.707 56.864,7.995L56.864,7.995C59.3,10.655 63.002,11.78 66.503,10.914L66.503,10.914C71.99,9.556 77.491,13.083 78.547,18.635L78.703,19.453C79.387,23.046 81.892,26.025 85.315,27.314L85.315,27.314C90.714,29.347 93.46,35.356 91.464,40.769L91.238,41.384C89.95,44.876 90.494,48.78 92.688,51.786L92.829,51.979C96.308,56.748 95.349,63.421 90.666,67.016L90.666,67.016C87.736,69.266 86.148,72.85 86.45,76.532L86.522,77.411C86.987,83.068 82.707,87.999 77.041,88.336L77.041,88.336C73.422,88.551 70.195,90.686 68.582,93.932L68.352,94.396C65.814,99.503 59.461,101.363 54.57,98.43L54.57,98.43C51.475,96.575 47.61,96.575 44.515,98.43L44.515,98.43C39.624,101.363 33.271,99.503 30.733,94.396L30.502,93.932C28.889,90.686 25.662,88.551 22.044,88.336L22.044,88.336C16.378,87.999 12.098,83.068 12.562,77.411L12.634,76.532C12.937,72.85 11.349,69.266 8.418,67.016L8.418,67.016C3.736,63.421 2.776,56.748 6.256,51.979L6.397,51.786C8.59,48.78 9.135,44.876 7.847,41.384L7.621,40.769C5.624,35.356 8.371,29.347 13.77,27.314L13.77,27.314C17.193,26.025 19.698,23.046 20.382,19.453L20.538,18.635C21.594,13.083 27.095,9.556 32.581,10.914L32.581,10.914C36.083,11.78 39.785,10.655 42.221,7.995L42.221,7.995Z" fill="url(#pf_0_230_823)"/>
<g opacity="0.8">
<path d="M43.882,59.582L37.286,52.597C36.931,52.22 36.449,52.008 35.946,52.008C35.443,52.008 34.961,52.22 34.606,52.597C33.865,53.382 33.865,54.65 34.606,55.435L42.551,63.85C43.292,64.635 44.49,64.635 45.231,63.85L65.341,42.552C66.082,41.767 66.082,40.499 65.341,39.714C64.985,39.337 64.503,39.125 64.001,39.125C63.498,39.125 63.016,39.337 62.661,39.714L43.882,59.582Z" fill="#FFFFFF" stroke="#FDFDFD" stroke-width="1.305" stroke-miterlimit="3.999327"/>
</g>
<path d="M49.543,20.6C49.543,18.525 51.23,16.821 53.292,17.055C59.4,17.749 65.249,20.128 70.226,23.983C76.215,28.62 80.628,35.148 82.817,42.608C85.007,50.068 84.857,58.067 82.39,65.431C79.923,72.795 75.268,79.136 69.11,83.523C62.952,87.91 55.615,90.112 48.175,89.805C40.735,89.498 33.585,86.7 27.775,81.819C21.965,76.939 17.8,70.235 15.892,62.69C14.29,56.356 14.35,49.709 16.033,43.445C16.561,41.478 18.733,40.549 20.614,41.33L20.614,41.33C22.411,42.076 23.269,44.111 22.798,45.999C21.593,50.821 21.591,55.908 22.82,60.765C24.335,66.756 27.642,72.08 32.256,75.956C36.871,79.831 42.549,82.054 48.457,82.297C54.365,82.541 60.192,80.792 65.082,77.309C69.972,73.825 73.668,68.789 75.627,62.941C77.586,57.093 77.705,50.741 75.967,44.817C74.229,38.893 70.724,33.709 65.968,30.026C62.224,27.127 57.859,25.279 53.287,24.624C51.233,24.329 49.543,22.675 49.543,20.6L49.543,20.6Z" fill="#FFFFFF" fill-opacity="0.5"/>
<defs>
<linearGradient id="pf_0_230_822" x1="63.799" y1="103.87" x2="63.443" y2="0" gradientUnits="userSpaceOnUse">
<stop offset="0.063" stop-color="#87704F"/>
<stop offset="1" stop-color="#CBC6C5"/>
</linearGradient>
<linearGradient id="pf_0_230_823" x1="-17.016" y1="-8.115" x2="99.085" y2="108.739" gradientUnits="userSpaceOnUse">
<stop stop-color="#FFFFFF" stop-opacity="0.1"/>
<stop offset="1" stop-color="#FFFFFF" stop-opacity="0.1"/>
</linearGradient>
</defs>
</svg>
