<svg width="16" height="16" viewBox="0 0 16 16" fill="none" xmlns="http://www.w3.org/2000/svg">
<path fill-rule="evenodd" clip-rule="evenodd" d="M11 0C9.89543 0 9 0.89543 9 2V5C9 6.10457 9.89543 7 11 7H14C15.1046 7 16 6.10457 16 5V2C16 0.895431 15.1046 0 14 0H11ZM11.5556 1.55556C11.0033 1.55556 10.5556 2.00327 10.5556 2.55556V4.44444C10.5556 4.99673 11.0033 5.44444 11.5556 5.44444H13.4444C13.9967 5.44444 14.4444 4.99673 14.4444 4.44444V2.55556C14.4444 2.00327 13.9967 1.55556 13.4444 1.55556H11.5556ZM0 2C0 0.89543 0.895431 0 2 0H5C6.10457 0 7 0.895431 7 2V5C7 6.10457 6.10457 7 5 7H2C0.895431 7 0 6.10457 0 5V2ZM1.55556 2.55556C1.55556 2.00327 2.00327 1.55556 2.55556 1.55556H4.44444C4.99673 1.55556 5.44444 2.00327 5.44444 2.55556V4.44444C5.44444 4.99673 4.99673 5.44444 4.44444 5.44444H2.55556C2.00327 5.44444 1.55556 4.99673 1.55556 4.44444V2.55556ZM0 11C0 9.89543 0.895431 9 2 9H5C6.10457 9 7 9.89543 7 11V14C7 15.1046 6.10457 16 5 16H2C0.895431 16 0 15.1046 0 14V11ZM1.55556 11.5556C1.55556 11.0033 2.00327 10.5556 2.55556 10.5556H4.44444C4.99673 10.5556 5.44444 11.0033 5.44444 11.5556V13.4444C5.44444 13.9967 4.99673 14.4444 4.44444 14.4444H2.55556C2.00327 14.4444 1.55556 13.9967 1.55556 13.4444V11.5556ZM9 11C9 9.89543 9.89543 9 11 9H14C15.1046 9 16 9.89543 16 11V14C16 15.1046 15.1046 16 14 16H11C9.89543 16 9 15.1046 9 14V11ZM10.5556 11.5556C10.5556 11.0033 11.0033 10.5556 11.5556 10.5556H13.4444C13.9967 10.5556 14.4444 11.0033 14.4444 11.5556V13.4444C14.4444 13.9967 13.9967 14.4444 13.4444 14.4444H11.5556C11.0033 14.4444 10.5556 13.9967 10.5556 13.4444V11.5556Z" fill="#00201C"/>
</svg>
