<svg width="26" height="26" viewBox="0 0 26 26" fill="none" xmlns="http://www.w3.org/2000/svg">
<g filter="url(#filter0_d_0_96)">
<path opacity="0.4" d="M13 2.16675C10.1617 2.16675 7.85419 4.47425 7.85419 7.31258C7.85419 10.0967 10.0317 12.3501 12.87 12.4476C12.9567 12.4367 13.0434 12.4367 13.1084 12.4476C13.13 12.4476 13.1409 12.4476 13.1625 12.4476C13.1734 12.4476 13.1734 12.4476 13.1842 12.4476C15.9575 12.3501 18.135 10.0967 18.1459 7.31258C18.1459 4.47425 15.8384 2.16675 13 2.16675Z" fill="#DE2910"/>
<path d="M18.5034 15.3291C15.4809 13.3141 10.5517 13.3141 7.50752 15.3291C6.13169 16.25 5.37335 17.4958 5.37335 18.8283C5.37335 20.1608 6.13169 21.3958 7.49669 22.3058C9.01335 23.3241 11.0067 23.8333 13 23.8333C14.9934 23.8333 16.9867 23.3241 18.5034 22.3058C19.8684 21.385 20.6267 20.15 20.6267 18.8066C20.6159 17.4741 19.8684 16.2391 18.5034 15.3291Z" fill="#DE2910"/>
</g>
<defs>
<filter id="filter0_d_0_96" x="-12" y="-8" width="50" height="50" filterUnits="userSpaceOnUse" color-interpolation-filters="sRGB">
<feFlood flood-opacity="0" result="BackgroundImageFix"/>
<feColorMatrix in="SourceAlpha" type="matrix" values="0 0 0 0 0 0 0 0 0 0 0 0 0 0 0 0 0 0 127 0" result="hardAlpha"/>
<feOffset dy="4"/>
<feGaussianBlur stdDeviation="6"/>
<feComposite in2="hardAlpha" operator="out"/>
<feColorMatrix type="matrix" values="0 0 0 0 0.870588 0 0 0 0 0.160784 0 0 0 0 0.0627451 0 0 0 0.5 0"/>
<feBlend mode="normal" in2="BackgroundImageFix" result="effect1_dropShadow_0_96"/>
<feBlend mode="normal" in="SourceGraphic" in2="effect1_dropShadow_0_96" result="shape"/>
</filter>
</defs>
</svg>
