<svg width="12" height="12" viewBox="0 0 12 12" fill="none" xmlns="http://www.w3.org/2000/svg">
<path fill-rule="evenodd" clip-rule="evenodd" d="M5.54566 1.2002C3.09954 1.2002 1.10927 3.35359 1.10927 6.00019C1.10927 8.64679 3.09954 10.8002 5.54566 10.8002C7.99177 10.8002 9.98204 8.64679 9.98204 6.00019C9.98204 3.35359 7.99177 1.2002 5.54566 1.2002ZM5.54545 12C2.48769 12 0 9.3084 0 6C0 2.6916 2.48769 0 5.54545 0C8.60322 0 11.0909 2.6916 11.0909 6C11.0909 9.3084 8.60322 12 5.54545 12Z" fill="#00201C"/>
<path fill-rule="evenodd" clip-rule="evenodd" d="M4.42814 5.1004C4.42814 5.59762 4.05567 6.00061 3.59612 6.00061C3.13657 6.00061 2.7641 5.59762 2.7641 5.1004C2.7641 4.60319 3.13657 4.2002 3.59612 4.2002C4.05567 4.2002 4.42814 4.60319 4.42814 5.1004ZM5.53681 9.39751C4.65591 9.39751 3.81605 8.98832 3.23239 8.27432C3.05494 8.05712 3.07379 7.72562 3.27426 7.53332C3.47501 7.34132 3.78167 7.36142 3.9594 7.57892C4.35868 8.06702 4.93374 8.34752 5.53681 8.34752C6.13988 8.34752 6.71495 8.06702 7.11422 7.57892C7.29195 7.36082 7.59889 7.34132 7.79936 7.53332C7.99983 7.72562 8.01869 8.05712 7.84123 8.27432C7.25757 8.98832 6.41771 9.39751 5.53681 9.39751ZM7.47811 6.00063C7.93766 6.00063 8.31012 5.59763 8.31012 5.10041C8.31012 4.60319 7.93766 4.2002 7.47811 4.2002C7.01856 4.2002 6.6461 4.60319 6.6461 5.10041C6.6461 5.59763 7.01856 6.00063 7.47811 6.00063Z" fill="#00201C"/>
</svg>
