<svg width="79" height="108" viewBox="0 0 79 108" fill="none" xmlns="http://www.w3.org/2000/svg">
<circle cx="39.5" cy="53.5" r="29.5" fill="white" stroke="#DE2910" stroke-width="6"/>
<path d="M47.4613 68.2812H31.5388C27.7713 68.2812 24.7188 65.215 24.7188 61.4475V51.2587C24.7188 49.3887 25.8738 47.0375 27.3588 45.8825L34.77 40.1075C36.9975 38.375 40.5588 38.2925 42.8687 39.915L51.3662 45.8687C53.0025 47.01 54.2812 49.4575 54.2812 51.4512V61.4612C54.2812 65.215 51.2288 68.2812 47.4613 68.2812ZM36.035 41.73L28.6238 47.505C27.6475 48.275 26.7812 50.0212 26.7812 51.2587V61.4475C26.7812 64.0737 28.9125 66.2187 31.5388 66.2187H47.4613C50.0875 66.2187 52.2188 64.0875 52.2188 61.4612V51.4512C52.2188 50.1312 51.27 48.3025 50.1838 47.56L41.6863 41.6062C40.1188 40.5062 37.5337 40.5612 36.035 41.73Z" fill="#DE2910"/>
<path d="M39.5 62.7812C38.9363 62.7812 38.4688 62.3137 38.4688 61.75V57.625C38.4688 57.0613 38.9363 56.5938 39.5 56.5938C40.0638 56.5938 40.5312 57.0613 40.5312 57.625V61.75C40.5312 62.3137 40.0638 62.7812 39.5 62.7812Z" fill="#DE2910"/>
</svg>
