<svg width="17" height="17" viewBox="0 0 17 17" fill="none" xmlns="http://www.w3.org/2000/svg">
<path d="M4.67197 2.43444C6.189 -0.811468 10.8049 -0.811469 12.3219 2.43444L12.3876 2.57503C12.8075 3.47344 13.5302 4.19538 14.4291 4.61428L14.5552 4.67307C17.8067 6.18839 17.8067 10.8116 14.5552 12.3269L14.4291 12.3857C13.5302 12.8046 12.8075 13.5266 12.3876 14.425L12.3219 14.5656C10.8049 17.8115 6.189 17.8115 4.67197 14.5656L4.60626 14.425C4.18637 13.5266 3.46364 12.8046 2.56477 12.3857L2.43862 12.3269C-0.812874 10.8116 -0.812875 6.18839 2.43862 4.67307L2.56477 4.61428C3.46364 4.19538 4.18637 3.47344 4.60626 2.57503L4.67197 2.43444Z" fill="black"/>
</svg>
