<svg width="21" height="24" viewBox="0 0 21 24" fill="none" xmlns="http://www.w3.org/2000/svg">
<path fill-rule="evenodd" clip-rule="evenodd" d="M13.1068 11.5C13.1068 13.16 11.9359 14.5 10.4855 14.5C9.03498 14.5 7.8641 13.16 7.8641 11.5V5.5C7.8641 3.84 9.03498 2.5 10.4855 2.5C11.9359 2.5 13.1068 3.84 13.1068 5.5V11.5ZM10.4855 16.5C12.8971 16.5 14.8544 14.26 14.8544 11.5H16.602C16.602 15.03 14.3214 17.93 11.3592 18.42V21.5H9.61168V18.42C6.64954 17.93 4.36896 15.03 4.36896 11.5H6.11653C6.11653 14.26 8.07381 16.5 10.4855 16.5Z" fill="#00201C"/>
</svg>
