<svg width="23" height="24" viewBox="0 0 23 24" fill="none" xmlns="http://www.w3.org/2000/svg">
<path fill-rule="evenodd" clip-rule="evenodd" d="M1.84851 12C1.84851 6.48 5.97987 2 11.0817 2C16.1928 2 20.3334 6.48 20.3334 12C20.3334 17.52 16.1928 22 11.0817 22C5.97987 22 1.84851 17.52 1.84851 12ZM14.7602 8H17.4867C16.5994 6.35 15.1853 5.07 13.4847 4.44C14.0393 5.55 14.4644 6.75 14.7602 8ZM11.0909 4.04C11.8581 5.24 12.4588 6.57 12.8562 8H9.32563C9.72306 6.57 10.3238 5.24 11.0909 4.04ZM3.697 12C3.697 12.69 3.78942 13.36 3.9373 14H7.06124C6.9873 13.34 6.93184 12.68 6.93184 12C6.93184 11.32 6.9873 10.66 7.06124 10H3.9373C3.78942 10.64 3.697 11.31 3.697 12ZM4.69518 16H7.42169C7.71745 17.25 8.1426 18.45 8.69715 19.56C6.99654 18.93 5.58245 17.66 4.69518 16ZM4.69518 8H7.42169C7.71745 6.75 8.1426 5.55 8.69715 4.44C6.99654 5.07 5.58245 6.34 4.69518 8ZM11.0909 19.96C10.3238 18.76 9.72306 17.43 9.32563 16H12.8562C12.4588 17.43 11.8581 18.76 11.0909 19.96ZM8.78033 12C8.78033 12.68 8.84503 13.34 8.92821 14H13.2537C13.3368 13.34 13.4015 12.68 13.4015 12C13.4015 11.32 13.3368 10.65 13.2537 10H8.92821C8.84503 10.65 8.78033 11.32 8.78033 12ZM13.4847 19.56C14.0393 18.45 14.4644 17.25 14.7602 16H17.4867C16.5994 17.65 15.1853 18.93 13.4847 19.56ZM15.25 12C15.25 12.68 15.1946 13.34 15.1206 14H18.2446C18.3925 13.36 18.4849 12.69 18.4849 12C18.4849 11.31 18.3925 10.64 18.2446 10H15.1206C15.1946 10.66 15.25 11.32 15.25 12Z" fill="#00201C"/>
</svg>
