<svg width="27" height="27" viewBox="0 0 27 27" fill="none" xmlns="http://www.w3.org/2000/svg">
<path d="M21.555 9.0064L17.055 5.0073C15.03 3.20378 11.97 3.20378 9.945 5.0073L5.445 9.0064C4.30875 10.0146 3.65625 11.4596 3.65625 12.9831V20.1075C3.65625 22.46 5.54625 24.3755 7.875 24.3755H19.125C21.4537 24.3755 23.3437 22.46 23.3437 20.1075V12.9831C23.3437 11.4708 22.6912 10.0146 21.555 9.0064ZM17.7187 21.0037C17.7187 21.463 17.3362 21.8438 16.875 21.8438C16.4137 21.8438 16.0312 21.463 16.0312 21.0037V17.6431C16.0312 16.2541 14.895 15.1227 13.5 15.1227C12.105 15.1227 10.9687 16.2541 10.9687 17.6431V21.0037C10.9687 21.463 10.5862 21.8438 10.125 21.8438C9.66375 21.8438 9.28125 21.463 9.28125 21.0037V17.6431C9.28125 15.3243 11.1712 13.4424 13.5 13.4424C15.8287 13.4424 17.7187 15.3243 17.7187 17.6431V21.0037Z" fill="#7E0F00"/>
</svg>
