<svg width="16" height="22" viewBox="0 0 16 22" fill="none" xmlns="http://www.w3.org/2000/svg">
<path opacity="0.4" d="M7.74414 0C4.86214 0 2.51913 2.343 2.51913 5.22501C2.51913 8.05202 4.73013 10.34 7.61214 10.439C7.70014 10.428 7.78814 10.428 7.85414 10.439C7.87614 10.439 7.88714 10.439 7.90914 10.439C7.92014 10.439 7.92014 10.439 7.93114 10.439C10.7471 10.34 12.9582 8.05202 12.9692 5.22501C12.9692 2.343 10.6261 0 7.74414 0Z" fill="#DE2910"/>
<path d="M13.332 13.365C10.263 11.319 5.25801 11.319 2.167 13.365C0.770001 14.3 0 15.565 0 16.918C0 18.271 0.770001 19.525 2.156 20.449C3.69601 21.483 5.72001 22 7.74401 22C9.76802 22 11.792 21.483 13.332 20.449C14.718 19.514 15.488 18.26 15.488 16.896C15.477 15.543 14.718 14.289 13.332 13.365Z" fill="#DE2910"/>
</svg>
