<svg width="27" height="27" viewBox="0 0 27 27" fill="none" xmlns="http://www.w3.org/2000/svg">
<path d="M13.5 2.52036C7.44751 2.52036 2.53126 7.41563 2.53126 13.4423C2.53126 19.469 7.44751 24.3642 13.5 24.3642C19.5525 24.3642 24.4688 19.469 24.4688 13.4423C24.4688 7.41563 19.5525 2.52036 13.5 2.52036ZM13.5 22.6839C8.38126 22.6839 4.21876 18.5392 4.21876 13.4423C4.21876 8.34539 8.38126 4.20066 13.5 4.20066C18.6188 4.20066 22.7813 8.34539 22.7813 13.4423C22.7813 18.5392 18.6188 22.6839 13.5 22.6839Z" fill="#7E0F00"/>
<path d="M13.5 7.00127C11.79 7.00127 10.4063 8.37911 10.4063 10.0818C10.4063 10.5411 10.7888 10.922 11.25 10.922C11.7113 10.922 12.0938 10.5411 12.0938 10.0818C12.0938 9.30888 12.7238 8.68157 13.5 8.68157C14.2763 8.68157 14.9063 9.30888 14.9063 10.0818C14.9063 10.5299 14.6925 10.9444 14.3325 11.2132C13.2638 11.9862 12.6563 13.1064 12.6563 14.2714V14.5626C12.6563 15.0219 13.0388 15.4028 13.5 15.4028C13.9613 15.4028 14.3438 15.0219 14.3438 14.5626V14.2714C14.3438 13.42 14.9625 12.8375 15.3338 12.5687C16.1213 11.9862 16.5938 11.0564 16.5938 10.0818C16.5938 8.37911 15.21 7.00127 13.5 7.00127Z" fill="#7E0F00"/>
<path d="M13.5 17.0829C13.0388 17.0829 12.6563 17.4638 12.6563 17.9231V18.8641C12.6563 19.3233 13.0388 19.7042 13.5 19.7042C13.9613 19.7042 14.3438 19.3233 14.3438 18.8641V17.9231C14.3438 17.4638 13.9613 17.0829 13.5 17.0829Z" fill="#7E0F00"/>
</svg>
