<svg width="17" height="17" viewBox="0 0 17 17" fill="none" xmlns="http://www.w3.org/2000/svg">
<path d="M4.67209 2.43444C6.18913 -0.811468 10.805 -0.811469 12.322 2.43444L12.3877 2.57503C12.8076 3.47344 13.5304 4.19538 14.4292 4.61428L14.5554 4.67307C17.8069 6.18839 17.8069 10.8116 14.5554 12.3269L14.4292 12.3857C13.5304 12.8046 12.8076 13.5266 12.3877 14.425L12.322 14.5656C10.805 17.8115 6.18913 17.8115 4.6721 14.5656L4.60639 14.425C4.1865 13.5266 3.46377 12.8046 2.5649 12.3857L2.43875 12.3269C-0.812747 10.8116 -0.812748 6.18839 2.43875 4.67307L2.5649 4.61428C3.46377 4.19538 4.1865 3.47344 4.60639 2.57503L4.67209 2.43444Z" fill="black"/>
</svg>
