<svg width="22" height="24" viewBox="0 0 22 24" fill="none" xmlns="http://www.w3.org/2000/svg">
<path fill-rule="evenodd" clip-rule="evenodd" d="M6.6326 3H18.6206C19.9912 3 21.0909 4.23117 21.0909 5.73684V18.2632C21.0909 19.7688 19.9912 21 18.6206 21H6.6326C5.79959 21 5.08997 20.536 4.62568 19.7706L0 11.9955L4.62996 4.21329C5.08863 3.4573 5.79932 3 6.6326 3ZM19.3481 5.73663C19.3481 5.26494 19.0172 4.89453 18.6216 4.89453H6.63354C6.41502 4.89453 6.2362 5.0096 6.09099 5.24885L2.07729 11.9953L1.77131 11.481V12.5096L2.07729 11.9953L6.08671 18.7346C6.23962 18.9866 6.42064 19.105 6.63354 19.105H18.6216C19.0172 19.105 19.3481 18.7346 19.3481 18.2629V5.73663Z" fill="#00201C"/>
<path fill-rule="evenodd" clip-rule="evenodd" d="M16.2985 15.0128L15.1454 16.2639L12.2239 13.0941L9.30248 16.2639L8.14939 15.0128L11.0708 11.8429L8.14939 8.67303L9.30248 7.42188L12.2239 10.5918L15.1454 7.42188L16.2985 8.67303L13.377 11.8429L16.2985 15.0128Z" fill="#00201C"/>
</svg>
