<svg width="26" height="26" viewBox="0 0 26 26" fill="none" xmlns="http://www.w3.org/2000/svg">
<g filter="url(#filter0_d_0_51)">
<path opacity="0.4" d="M13 2.16667C10.1616 2.16667 7.85413 4.47417 7.85413 7.31251C7.85413 10.0967 10.0316 12.35 12.87 12.4475C12.9566 12.4367 13.0433 12.4367 13.1083 12.4475C13.13 12.4475 13.1408 12.4475 13.1625 12.4475C13.1733 12.4475 13.1733 12.4475 13.1841 12.4475C15.9575 12.35 18.135 10.0967 18.1458 7.31251C18.1458 4.47417 15.8383 2.16667 13 2.16667Z" fill="#DE2910"/>
<path d="M18.5033 15.3292C15.4808 13.3142 10.5516 13.3142 7.50746 15.3292C6.13162 16.25 5.37329 17.4958 5.37329 18.8283C5.37329 20.1608 6.13162 21.3958 7.49662 22.3058C9.01329 23.3242 11.0066 23.8333 13 23.8333C14.9933 23.8333 16.9866 23.3242 18.5033 22.3058C19.8683 21.385 20.6266 20.15 20.6266 18.8067C20.6158 17.4742 19.8683 16.2392 18.5033 15.3292Z" fill="#DE2910"/>
</g>
<defs>
<filter id="filter0_d_0_51" x="-12" y="-8" width="50" height="50" filterUnits="userSpaceOnUse" color-interpolation-filters="sRGB">
<feFlood flood-opacity="0" result="BackgroundImageFix"/>
<feColorMatrix in="SourceAlpha" type="matrix" values="0 0 0 0 0 0 0 0 0 0 0 0 0 0 0 0 0 0 127 0" result="hardAlpha"/>
<feOffset dy="4"/>
<feGaussianBlur stdDeviation="6"/>
<feComposite in2="hardAlpha" operator="out"/>
<feColorMatrix type="matrix" values="0 0 0 0 0.870588 0 0 0 0 0.160784 0 0 0 0 0.0627451 0 0 0 0.5 0"/>
<feBlend mode="normal" in2="BackgroundImageFix" result="effect1_dropShadow_0_51"/>
<feBlend mode="normal" in="SourceGraphic" in2="effect1_dropShadow_0_51" result="shape"/>
</filter>
</defs>
</svg>
