<svg width="27" height="27" viewBox="0 0 27 27" fill="none" xmlns="http://www.w3.org/2000/svg">
<path d="M16.875 2.52035H10.125C7.79625 2.52035 5.90625 4.40228 5.90625 6.72109V21.4293C5.90625 22.1574 6.3 22.8183 6.94125 23.1544C7.5825 23.5016 8.35875 23.4568 8.96625 23.0536L13.3425 20.1522C13.4325 20.085 13.5562 20.085 13.6575 20.1522L18.0337 23.0536C18.36 23.2776 18.7425 23.3784 19.125 23.3784C19.44 23.3784 19.7662 23.3 20.0587 23.1432C20.7 22.8071 21.0937 22.135 21.0937 21.4181V6.72109C21.0937 4.40228 19.2037 2.52035 16.875 2.52035ZM19.4062 21.4293C19.4062 21.5749 19.3162 21.6421 19.26 21.6757C19.2037 21.7093 19.0912 21.7429 18.9675 21.6645L14.5912 18.7632C13.9275 18.3151 13.0725 18.3151 12.4087 18.7632L8.0325 21.6645C7.90875 21.7429 7.79625 21.7093 7.74 21.6757C7.68375 21.6421 7.59375 21.5749 7.59375 21.4293V6.72109C7.59375 5.33205 8.73 4.20065 10.125 4.20065H16.875C18.27 4.20065 19.4062 5.33205 19.4062 6.72109V21.4293Z" fill="#7E0F00"/>
</svg>
