<svg width="33" height="33" viewBox="0 0 33 33" fill="none" xmlns="http://www.w3.org/2000/svg">
<path d="M24.4613 31.2812H8.53875C4.77125 31.2812 1.71875 28.215 1.71875 24.4475V14.2587C1.71875 12.3887 2.87375 10.0375 4.35875 8.88246L11.77 3.10746C13.9975 1.37496 17.5588 1.29246 19.8687 2.91496L28.3662 8.86871C30.0025 10.01 31.2812 12.4575 31.2812 14.4512V24.4612C31.2812 28.215 28.2288 31.2812 24.4613 31.2812ZM13.035 4.72996L5.62375 10.505C4.6475 11.275 3.78125 13.0212 3.78125 14.2587V24.4475C3.78125 27.0737 5.9125 29.2187 8.53875 29.2187H24.4613C27.0875 29.2187 29.2188 27.0875 29.2188 24.4612V14.4512C29.2188 13.1312 28.27 11.3025 27.1838 10.56L18.6863 4.60621C17.1188 3.50621 14.5337 3.56121 13.035 4.72996Z" fill="#DE2910"/>
<path d="M16.5 25.7812C15.9363 25.7812 15.4688 25.3137 15.4688 24.75V20.625C15.4688 20.0613 15.9363 19.5938 16.5 19.5938C17.0638 19.5938 17.5312 20.0613 17.5312 20.625V24.75C17.5312 25.3137 17.0638 25.7812 16.5 25.7812Z" fill="#DE2910"/>
</svg>
