<svg width="340" height="118" viewBox="0 0 340 118" fill="none" xmlns="http://www.w3.org/2000/svg">
<path d="M0 40.1293C0 25.7884 0 18.618 2.87926 13.18C5.20281 8.79161 8.79161 5.20281 13.18 2.87926C18.618 0 25.7884 0 40.1293 0H299.871C314.212 0 321.382 0 326.82 2.87926C331.208 5.20281 334.797 8.79161 337.121 13.18C340 18.618 340 25.7884 340 40.1293V77.8707C340 92.2116 340 99.382 337.121 104.82C334.797 109.208 331.208 112.797 326.82 115.121C321.382 118 314.212 118 299.871 118H40.1293C25.7884 118 18.618 118 13.18 115.121C8.79161 112.797 5.20281 109.208 2.87926 104.82C0 99.382 0 92.2116 0 77.8707V40.1293Z" fill="white"/>
</svg>
