<svg width="30" height="30" viewBox="0 0 30 30" fill="none" xmlns="http://www.w3.org/2000/svg">
<path d="M23.0791 29.9673H6.92093C3.09767 29.9673 0 26.8556 0 23.0324V12.6928C0 10.7952 1.17209 8.40912 2.67907 7.23703L10.2 1.37656C12.4605 -0.381577 16.0744 -0.465298 18.4186 1.18121L27.0419 7.22307C28.7023 8.38121 30 10.8649 30 12.8882V23.0463C30 26.8556 26.9023 29.9673 23.0791 29.9673ZM11.4837 3.02307L3.96279 8.88354C2.97209 9.66493 2.09302 11.437 2.09302 12.6928V23.0324C2.09302 25.6975 4.25581 27.8742 6.92093 27.8742H23.0791C25.7442 27.8742 27.907 25.7114 27.907 23.0463V12.8882C27.907 11.5487 26.9442 9.69284 25.8419 8.93935L17.2186 2.89749C15.6279 1.78121 13.0047 1.83703 11.4837 3.02307Z" fill="white"/>
</svg>
