<svg width="17" height="15" viewBox="0 0 17 15" fill="none" xmlns="http://www.w3.org/2000/svg">
<path d="M5.46887 12.1034C6.40967 13.7329 6.88007 14.5477 7.49419 14.8211C8.02986 15.0596 8.64157 15.0596 9.17724 14.8211C9.79137 14.5477 10.2618 13.7329 11.2026 12.1034L15.3236 4.96552C16.2644 3.33602 16.7348 2.52126 16.6646 1.8527C16.6033 1.26955 16.2974 0.739792 15.823 0.395137C15.2792 0 14.3384 0 12.4568 0H4.21464C2.33305 0 1.39225 0 0.848393 0.395137C0.374015 0.739792 0.0681602 1.26955 0.00686867 1.8527C-0.0634003 2.52126 0.406996 3.33602 1.34779 4.96552L5.46887 12.1034Z" fill="white" fill-opacity="0.65"/>
</svg>
