<svg width="33" height="40" viewBox="0 0 33 40" fill="none" xmlns="http://www.w3.org/2000/svg">
<path fill-rule="evenodd" clip-rule="evenodd" d="M29.8654 16.4339C29.8654 9.01586 23.8519 3.00236 16.4339 3.00236C9.01586 3.00236 3.00236 9.01586 3.00236 16.4339C3.00236 23.8519 9.01586 29.8654 16.4339 29.8654C23.8519 29.8654 29.8654 23.8519 29.8654 16.4339ZM32.8678 16.4339C32.8678 7.3577 25.5101 0 16.4339 0C7.3577 0 0 7.3577 0 16.4339C0 25.5101 7.3577 32.8678 16.4339 32.8678C19.0612 32.8678 21.5446 32.2512 23.7471 31.1549C23.7096 31.5939 23.816 32.0481 24.0812 32.442L28.5735 39.1159C29.1908 40.0329 30.4346 40.2759 31.3516 39.6587C32.2687 39.0414 32.5117 37.7976 31.8944 36.8805L27.4021 30.2066C27.1634 29.852 26.831 29.5982 26.4601 29.456C30.3572 26.451 32.8678 21.7356 32.8678 16.4339Z" fill="white"/>
</svg>
