<svg width="31" height="31" viewBox="0 0 31 31" fill="none" xmlns="http://www.w3.org/2000/svg">
<path d="M28.0808 23.0092V22.9449C28.055 22.5976 28.0033 22.2632 27.9129 21.9288L25.5104 6.35354C25.4846 5.3632 25.0454 4.42431 24.2833 3.76838C23.5083 3.09958 22.4621 2.7909 21.4416 2.93238C19.7108 3.17675 18.4062 4.77157 18.4062 6.63649V8.93871C17.5666 8.3728 16.5591 8.05126 15.5 8.05126C14.4408 8.05126 13.4333 8.3728 12.5937 8.93871V6.63649C12.5937 4.77157 11.2891 3.17675 9.55831 2.93238C8.53789 2.7909 7.49164 3.08671 6.71664 3.76838C5.95456 4.42431 5.51539 5.3632 5.48956 6.35354L3.08706 21.9288C2.99664 22.2504 2.94498 22.5848 2.93206 22.9449V23.0092C2.93206 23.0092 2.90623 23.1121 2.90623 23.1507C2.90623 25.813 5.07623 27.9738 7.74998 27.9738C10.4237 27.9738 12.5937 25.813 12.5937 23.1507V18.5205C13.2137 18.1347 14.2083 17.6845 15.5 17.6845C16.7916 17.6845 17.7862 18.1347 18.4062 18.5205V23.1507C18.4062 25.813 20.5762 27.9738 23.25 27.9738C25.9237 27.9738 28.0937 25.813 28.0937 23.1507C28.0937 23.0992 28.0937 23.0478 28.0937 23.0092H28.0808ZM21.7129 4.83588C21.7904 4.83588 21.8808 4.82302 21.9583 4.82302C22.3458 4.82302 22.7204 4.9645 23.0175 5.22173C23.3662 5.5304 23.5729 5.9677 23.5729 6.43071C23.5729 6.48216 23.5729 6.5336 23.5729 6.57219L25.4716 18.8935C24.8 18.5463 24.0508 18.3276 23.2371 18.3276C22.1391 18.3276 21.1446 18.7006 20.3308 19.318V11.5882V6.63649C20.3308 5.73619 20.9379 4.95164 21.7 4.84874L21.7129 4.83588ZM7.41414 6.57219C7.41414 6.57219 7.41414 6.46929 7.41414 6.43071C7.41414 5.9677 7.62081 5.51754 7.96956 5.22173C8.33123 4.91305 8.79623 4.78444 9.27414 4.84874C10.0491 4.95164 10.6433 5.73619 10.6433 6.63649V11.5882V19.3308C9.82956 18.7135 8.83498 18.3405 7.73706 18.3405C6.92331 18.3405 6.17414 18.5591 5.50248 18.9064L7.40123 6.58505L7.41414 6.57219ZM7.74998 26.0445C6.17414 26.0445 4.88248 24.7841 4.84373 23.215L4.98581 22.289C5.34748 21.1057 6.44539 20.244 7.74998 20.244C9.35164 20.244 10.6562 21.543 10.6562 23.1378C10.6562 24.7327 9.35164 26.0317 7.74998 26.0317V26.0445ZM15.5 15.7553C14.3504 15.7553 13.3687 16.0254 12.5937 16.3469V11.8197C13.1233 10.6879 14.2471 9.96763 15.5 9.96763C16.7529 9.96763 17.8766 10.7007 18.4062 11.8197V16.3469C17.6312 16.0125 16.6496 15.7425 15.5 15.7425V15.7553ZM23.25 26.0445C21.6483 26.0445 20.3437 24.7455 20.3437 23.1507C20.3437 21.5559 21.6483 20.2568 23.25 20.2568C24.5546 20.2568 25.6396 21.1186 26.0141 22.3018L26.1562 23.2279C26.1175 24.797 24.8258 26.0574 23.25 26.0574V26.0445Z" fill="white"/>
</svg>
