<svg width="27" height="27" viewBox="0 0 27 27" fill="none" xmlns="http://www.w3.org/2000/svg">
<path d="M18.8438 10.4513V7.84128C18.8438 4.90637 16.4475 2.52035 13.5 2.52035C10.5525 2.52035 8.15625 4.90637 8.15625 7.84128V10.4513C6.2325 10.8434 4.78125 12.5349 4.78125 14.5625V20.1634C4.78125 22.4822 6.67125 24.3642 9 24.3642H18C20.3288 24.3642 22.2188 22.4822 22.2188 20.1634V14.5625C22.2188 12.5349 20.7675 10.8322 18.8438 10.4513ZM13.5 4.20065C15.5138 4.20065 17.1563 5.83613 17.1563 7.84128V10.3617H9.84375V7.84128C9.84375 5.83613 11.4863 4.20065 13.5 4.20065ZM20.5313 20.1634C20.5313 21.5525 19.395 22.6839 18 22.6839H9C7.605 22.6839 6.46875 21.5525 6.46875 20.1634V14.5625C6.46875 13.1734 7.605 12.042 9 12.042H18C19.395 12.042 20.5313 13.1734 20.5313 14.5625V20.1634Z" fill="#7E0F00"/>
<path d="M13.4999 14.8425C13.0387 14.8425 12.6562 15.2233 12.6562 15.6826V19.0432C12.6562 19.5025 13.0387 19.8833 13.4999 19.8833C13.9612 19.8833 14.3437 19.5025 14.3437 19.0432V15.6826C14.3437 15.2233 13.9612 14.8425 13.4999 14.8425Z" fill="#7E0F00"/>
</svg>
